<?xml version="1.0" encoding="UTF-8"?><svg id="Capa_1" xmlns="http://www.w3.org/2000/svg" viewBox="0 0 512 512"><defs><style>.cls-1{fill:#e9eaea;}.cls-2{fill:#fcfcfc;}.cls-3{fill:#eeb87c;}.cls-4{fill:#eddeff;}.cls-5{fill:#fff;}.cls-6{fill:#fcd097;}.cls-7{fill:#ecf1f5;}.cls-8{fill:#b580ff;}.cls-9{fill:#666;}.cls-10{fill:#b1b1b1;}.cls-11{fill:#dabfff;}.cls-12{fill:#d7d8d8;}.cls-13{fill:#117984;}.cls-14{fill:#7900ff;}.cls-15{fill:#4d4d4d;}</style></defs><circle class="cls-14" cx="256" cy="256" r="256"/><path class="cls-10" d="M220.32,249.43h71.35l.39,4.88-34.87,52.86-37.46-53.39,.58-4.35h0Z"/><path class="cls-3" d="M220.78,236.17l-.62,29.82-50.59,27.66v101.41h170.32v-101.41l-47.02-29.22-2.58-29.81-69.51,1.55h0Z"/><path class="cls-6" d="M197.4,149.21s-2.9-6.37-10.69-3.22c-7.79,3.16,.35,34.65,3.33,39.05,2.97,4.39,7.76,1.6,9.51,1.43,2.48,18.78,2.7,31.72,10.22,39.63,7.12,7.5,23.42,22.77,32,28.1,5.82,1.23,10.15,1.95,14.23,2.17,4.08-.22,8.42-.94,14.23-2.17,8.59-5.33,24.89-20.61,32-28.1,7.51-7.92,7.74-20.86,10.22-39.63,1.74,.18,6.53,2.96,9.51-1.43,2.98-4.39,11.12-35.89,3.33-39.05-7.79-3.16-10.69,3.22-10.69,3.22,0,0,7.7-24.73-5.99-49.08-9.38-16.69-30.77-25.34-52.61-25.98-21.85,.64-43.23,9.29-52.61,25.98-13.69,24.35-5.99,49.08-5.99,49.08h0Z"/><path class="cls-11" d="M195.35,274.76l12.12-4.77,9.76-8.77,34.47,26.15h8.59l34.48-26.18,21.87,13.58,38.01,64.61-30.1,163.32c-21.82,6.05-44.81,9.3-68.56,9.3-19.37,0-38.23-2.17-56.37-6.24l-53.96-161.22,49.68-69.77h0Z"/><g><path class="cls-4" d="M305.59,266.59l-13.92-17.16-31.38,37.93,26.94,29.93,18.36-50.7Z"/><path class="cls-4" d="M206.38,266.29l13.94-16.86,31.38,37.93-28.01,29.62-17.31-50.69Z"/></g><path class="cls-5" d="M206.39,266.29l-92.24,30c-3.75,1.22-6.11,4.41-6.87,8.28l-27.13,137.46c18.27,17.28,39.08,31.88,61.81,43.21l13.49-44.01c.16-.51,.64-.82,1.16-.76,.52,.06,.92,.48,.95,1.01l1.95,51.69c29.78,12.14,62.36,18.83,96.5,18.83v-17.16l-49.61-228.54h0Z"/><g><path class="cls-7" d="M206.39,266.29l-10.57,3.25-27.99,47.76,35.34,1.11-21.69,12.35,74.53,164.08-49.61-228.55h0Z"/><path class="cls-7" d="M305.59,266.59l92.27,29.7c3.76,1.21,6.11,4.41,6.87,8.28l27.13,137.46c-18.27,17.28-39.08,31.88-61.82,43.21l-13.49-44.01c-.15-.51-.64-.82-1.16-.76-.52,.06-.92,.48-.95,1.01l-1.94,51.69c-29.78,12.14-62.36,18.83-96.5,18.83h0v-17.16l49.59-228.24h0Z"/></g><path class="cls-5" d="M305.59,266.59l5.87,1.78,32.69,49.22-35.34,1.11,21.7,12.35-74.51,163.78,49.59-228.24h0s0,0,0,0h0Z"/><path class="cls-12" d="M266.46,493.76c-3.11,0-5.63,2.52-5.63,5.62s2.52,5.62,5.63,5.62,5.63-2.52,5.63-5.62c0-3.1-2.52-5.62-5.63-5.62Z"/><path class="cls-9" d="M307.88,156.58l5.43-.19,1.75-6.19,5.11-5.1c3.38-25.43,4.37-65-20.87-63.86,0,0-2.28-28.86-47.8-23.2-45.53,5.66-66.1,35.05-63.65,59.57,2.45,24.52,1.46,27.49,1.46,27.49l5.11,5.1,.77,7.05,4.47-.28s1.4-9.43,2.8-13.58c1.4-4.15,.96-12.54,.96-12.54,0,0,53.77,3.43,68.31-15.06,8.98-11.42,29.59-31.19,30.63-3.8,.31,8.12-2.71,20.3,3.07,29.16,5.78,8.86,2.45,15.44,2.45,15.44h0Z"/><path class="cls-8" d="M256,494.84l14.54-66.9-9.88-131.88,5.38-2.3-5.75-6.39h-8.59l-5.9,6.24,5.54,2.45-9.63,132.95,14.29,65.84h0Z"/><path class="cls-5" d="M265.95,493.76c-2.83,0-5.13,2.29-5.13,5.12s2.3,5.12,5.13,5.12,5.13-2.29,5.13-5.12-2.3-5.12-5.13-5.12Z"/><path class="cls-2" d="M346.4,409.07c-9.99-1.73-16.69-11.22-14.97-21.21,1.73-9.99,11.22-16.69,21.21-14.97,9.99,1.73,16.69,11.23,14.97,21.22-1.73,9.99-11.22,16.69-21.21,14.97h0Z"/><path class="cls-8" d="M346.58,408.01c-9.41-1.63-15.72-10.57-14.09-19.98,1.63-9.41,10.57-15.72,19.98-14.1,9.41,1.63,15.72,10.57,14.09,19.98-1.63,9.41-10.57,15.72-19.98,14.09h0Z"/><path class="cls-1" d="M347.89,400.41c-5.2-.9-8.7-5.85-7.8-11.06,.9-5.21,5.85-8.7,11.05-7.8,5.21,.9,8.7,5.85,7.8,11.05-.9,5.2-5.85,8.7-11.05,7.8h0Z"/><path class="cls-2" d="M349.02,382.58l4.2,.73,2.26-13.09-4.2-.73-2.26,13.09Z"/><path class="cls-4" d="M208.24,412.7l7.88-1.56c3.35-.67,6.12-2.64,7.89-5.28,1.76-2.64,2.53-5.96,1.87-9.31l-9.26-46.67c-3.5-17.61-17.27-26.59-33.02-28.58-6.03-.76-12.36-.48-18.48,.73-6.13,1.21-12.08,3.37-17.36,6.38-13.75,7.83-23.02,21.38-19.52,39.02l9.26,46.67c.67,3.35,2.64,6.12,5.28,7.89h0c2.64,1.77,5.95,2.53,9.3,1.86l7.87-1.56-.64-3.25-7.87,1.56c-2.45,.49-4.89-.08-6.82-1.37h0c-1.94-1.3-3.39-3.33-3.87-5.78l-9.26-46.67c-3.18-16.01,5.32-28.34,17.9-35.5,4.97-2.84,10.58-4.87,16.37-6.02,5.79-1.15,11.75-1.41,17.43-.69,14.41,1.82,27.01,9.98,30.18,25.96l9.27,46.67c.49,2.45-.08,4.88-1.37,6.82-1.3,1.94-3.33,3.38-5.78,3.87l-7.88,1.56,.64,3.25h0s0,0,0,0h0Z"/><path class="cls-15" d="M219.1,356.8l-1.41-7.13c-3.6-18.16-17.78-27.41-33.96-29.46-6.15-.78-12.59-.5-18.83,.74-6.24,1.23-12.3,3.44-17.68,6.5-14.15,8.06-23.67,22-20.06,40.19l1.42,7.13,5.41-1.08-1.41-7.13c-3.07-15.46,5.17-27.39,17.36-34.34,4.87-2.77,10.37-4.77,16.05-5.89,5.68-1.13,11.52-1.38,17.09-.68,13.96,1.76,26.17,9.65,29.23,25.08l1.41,7.13,5.41-1.07h0Z"/><g><path class="cls-8" d="M153.7,424.24l4.21-.84c1.06,1.19,2.7,1.8,4.36,1.47,2.51-.5,4.14-2.93,3.64-5.44-.5-2.51-2.93-4.13-5.44-3.64-1.67,.33-2.95,1.52-3.47,3.02l-4.21,.83,.91,4.59h0Z"/><path class="cls-8" d="M211.59,412.75l-4.21,.84c-.52,1.5-1.8,2.69-3.47,3.02-2.51,.5-4.94-1.13-5.44-3.64-.5-2.51,1.13-4.94,3.64-5.44,1.67-.33,3.31,.28,4.36,1.47l4.21-.84,.91,4.59Z"/></g><path class="cls-9" d="M167.46,320.53l-1.61-8.1-3.2,.64-3.19,.63,1.63,8.18c1.22-.36,2.45-.66,3.69-.9,.89-.18,1.78-.32,2.68-.44Z"/><g><path class="cls-13" d="M160.57,419.73c.76-.15,1.25-.89,1.1-1.64-.15-.76-.88-1.25-1.65-1.1-.76,.15-1.25,.89-1.1,1.64s.89,1.25,1.65,1.1h0Z"/><path class="cls-13" d="M202.22,411.45c.76-.15,1.25-.89,1.1-1.64-.15-.76-.88-1.25-1.65-1.1-.76,.15-1.25,.89-1.1,1.65,.15,.76,.89,1.25,1.65,1.1Z"/></g><path class="cls-2" d="M347.38,400.32c-4.92-.85-8.22-5.53-7.38-10.46,.85-4.92,5.53-8.22,10.45-7.37,4.92,.85,8.23,5.53,7.38,10.45-.85,4.92-5.53,8.23-10.45,7.38h0Z"/><g><path class="cls-15" d="M206.43,268.72c-.14,0-49.86,.41-41.46,43.91l-4.62,.88c-9.47-49.04,45.87-49.49,46.03-49.49l.05,4.7Z"/><path class="cls-15" d="M305.64,264.24c8.11,.22,23.79,2.43,35.86,17.11,11.81,14.37,20.09,40.75,13.9,89.13l-4.66-.59c5.99-46.82-1.75-72.03-12.87-85.55-10.86-13.21-25.02-15.2-32.34-15.4l.11-4.7h0Z"/></g></svg>