<?xml version="1.0" encoding="UTF-8"?><svg id="Capa_1" xmlns="http://www.w3.org/2000/svg" viewBox="0 0 512 512"><defs><style>.cls-1{fill:#fff;}.cls-2{fill:#944dff;}.cls-3{fill:#e0ccff;}.cls-4{fill:#a366ff;}</style></defs><path class="cls-1" d="M140.42,165c53.86-53.87,119.93-119.97,127.47-127.46,49.92-50.05,131.06-50.05,180.98,0,50.05,49.92,50.05,131.06,0,180.98-7.45,7.51-75.76,75.8-127.46,127.47L140.42,165Z"/><path class="cls-3" d="M339.59,327.81s-113.37,113.34-121.07,121.05c-49.92,50.05-131.06,50.05-180.98,0-50.05-49.92-50.05-131.06,0-180.98,0,0,63.51-63.49,121.09-121.07l180.96,181Z"/><path class="cls-4" d="M358.4,204.8c-84.82,0-153.6,68.77-153.6,153.6s68.77,153.6,153.6,153.6,153.6-68.77,153.6-153.6-68.77-153.6-153.6-153.6Z"/><path class="cls-2" d="M439.36,228.05c-23.53-14.64-51.21-23.24-80.96-23.24-84.82,0-153.6,68.77-153.6,153.6,0,29.75,8.59,57.42,23.23,80.93,20.39-20.39,67.35-67.33,93.37-93.35h0c42.42-42.39,95.96-95.92,117.95-117.94Z"/></svg>