<?xml version="1.0" encoding="utf-8"?>
<!-- Generator: Adobe Illustrator 26.5.0, SVG Export Plug-In . SVG Version: 6.00 Build 0)  -->
<svg version="1.1" id="Capa_1" xmlns="http://www.w3.org/2000/svg" xmlns:xlink="http://www.w3.org/1999/xlink" x="0px" y="0px"
	 viewBox="0 0 512 512" style="enable-background:new 0 0 512 512;" xml:space="preserve">
<path style="fill:#6600FF;" d="M510.02,260.96l-1.8-6.46l-38-136.93c-10.8-38.98-36.13-71.42-71.32-91.35
	C363.7,6.29,322.85,1.26,283.87,12.06c-54.11,14.99-95.27,58.35-107.42,113.16l-5.78,26.02c-18.67-15.67-42.03-24.2-66.7-24.2
	c-27.78,0-53.89,10.82-73.52,30.46C10.82,177.13,0,203.24,0,231.01c0,27.77,10.81,53.88,30.45,73.52l170.47,170.47
	c19.64,19.64,45.75,30.46,73.52,30.46c27.78,0,53.89-10.82,73.52-30.46c19.64-19.63,30.46-45.74,30.46-73.52
	c0-8.02-0.91-15.97-2.72-23.71c17.15-11.11,29.66-27.92,35.4-47.52h46.21c30.17-0.01,54.7-24.57,54.69-54.74
	C512,270.6,511.33,265.7,510.02,260.96z M335.42,401.5c0,16.28-6.34,31.59-17.86,43.11c-11.52,11.52-26.84,17.87-43.12,17.87
	c-16.28,0-31.6-6.35-43.12-17.87l-70.04-70.03l44.32-44.32h41.78c5.48,18.76,17.16,34.97,33.41,46.18
	c15.91,10.97,34.74,16.15,53.8,14.93C335.14,394.7,335.42,398.09,335.42,401.5z M301.25,330.26h55.98
	c-6.88,8.02-17.03,12.93-27.99,12.99C318.29,343.19,308.13,338.28,301.25,330.26z M42.99,231.01c0-16.28,6.34-31.59,17.86-43.11
	c11.52-11.52,26.83-17.87,43.12-17.87c16.28,0,31.6,6.35,43.12,17.87l12.62,12.62l-14.04,63.17c-4.09,18.44,1.83,37.69,14.95,50.74
	l-29.74,29.75l-70.04-70.04l0,0C49.34,262.62,42.99,247.3,42.99,231.01z M192.59,275.55c0-0.47,0.05-0.95,0.15-1.41l30.77-138.47
	c5.98-26.91,22.09-49.88,45.35-64.68c16.77-10.67,35.8-16.17,55.2-16.17c7.52,0,15.09,0.83,22.6,2.5
	c37.29,8.29,66.81,36.3,77.04,73.1l39.8,143.45c0.55,1.92,0.16,4.02-1.05,5.62l-0.01,0.01c-1.2,1.59-3.1,2.54-5.16,2.54
	c-0.02,0-0.03,0-0.05,0H199.08C195.5,282.04,192.59,279.13,192.59,275.55z"/>
</svg>
