<?xml version="1.0" encoding="utf-8"?>
<!-- Generator: Adobe Illustrator 26.5.0, SVG Export Plug-In . SVG Version: 6.00 Build 0)  -->
<svg version="1.1" id="Capa_1" xmlns="http://www.w3.org/2000/svg" xmlns:xlink="http://www.w3.org/1999/xlink" x="0px" y="0px"
	 viewBox="0 0 512 512" style="enable-background:new 0 0 512 512;" xml:space="preserve">
<g>
	<path style="fill:#6600FF;" d="M490.83,86.98c-12.15-14.58-30.15-23-49.13-22.98H96.78l-0.9-7.49C92.09,24.3,64.79,0.02,32.35,0
		h-4.74C15.83,0,6.28,9.55,6.28,21.33c0,11.78,9.55,21.33,21.33,21.33h4.74c10.82,0,19.92,8.1,21.18,18.84l29.35,249.6
		c6.31,53.73,51.84,94.23,105.94,94.23h222.78c11.78,0,21.33-9.55,21.33-21.33s-9.55-21.33-21.33-21.33H188.83
		c-27.06-0.08-51.14-17.16-60.16-42.67h254.29c51.61,0,95.82-36.95,104.98-87.74l16.75-92.89C508.08,120.71,503,101.52,490.83,86.98
		z M462.82,131.8l-16.77,92.89c-5.5,30.51-32.08,52.7-63.08,52.65H121.89l-20.07-170.67h339.88c11.78-0.07,21.39,9.42,21.46,21.21
		C463.16,129.19,463.05,130.5,462.82,131.8z"/>
	
		<ellipse transform="matrix(0.9665 -0.2567 0.2567 0.9665 -115.2497 55.6642)" style="fill:#6600FF;" cx="155.61" cy="469.33" rx="42.67" ry="42.67"/>
	
		<ellipse transform="matrix(0.7882 -0.6154 0.6154 0.7882 -210.6924 326.458)" style="fill:#6600FF;" cx="368.95" cy="469.33" rx="42.67" ry="42.67"/>
</g>
</svg>
