<?xml version="1.0" encoding="utf-8"?>
<!-- Generator: Adobe Illustrator 26.5.0, SVG Export Plug-In . SVG Version: 6.00 Build 0)  -->
<svg version="1.1" id="Capa_1" xmlns="http://www.w3.org/2000/svg" xmlns:xlink="http://www.w3.org/1999/xlink" x="0px" y="0px"
	 viewBox="0 0 512 512" style="enable-background:new 0 0 512 512;" xml:space="preserve">
<g id="_01_align_center">
	<path style="fill:#6600FF;" d="M497.54,345.56L442.1,145.75C412.81,39.97,303.3-22.04,197.52,7.26
		C126.67,26.88,72.44,84.01,56.53,155.79L13.65,348.76c-7.65,34.49,14.1,68.65,48.59,76.31c4.55,1.01,9.19,1.52,13.84,1.52h76.91
		c11.72,57.7,67.99,94.98,125.69,83.26c41.95-8.52,74.74-41.31,83.26-83.26h73.99c35.33-0.02,63.95-28.67,63.94-64
		c0-5.75-0.78-11.48-2.32-17.03H497.54z M257.47,469.23c-27.01-0.11-51.04-17.18-60.04-42.64h120.09
		C308.51,452.05,284.48,469.12,257.47,469.23z M452.89,375.52c-4.03,5.35-10.36,8.47-17.06,8.42H76.09
		c-11.78,0-21.32-9.55-21.32-21.33c0-1.56,0.17-3.11,0.51-4.62l42.88-192.97c18.71-84.16,102.1-137.21,186.26-118.5
		c56.28,12.51,101.08,55.02,116.52,110.57l55.44,199.81C458.2,363.31,456.92,370.2,452.89,375.52z"/>
</g>
</svg>
