<?xml version="1.0" encoding="utf-8"?>
<!-- Generator: Adobe Illustrator 26.5.0, SVG Export Plug-In . SVG Version: 6.00 Build 0)  -->
<svg version="1.1" id="Capa_1" xmlns="http://www.w3.org/2000/svg" xmlns:xlink="http://www.w3.org/1999/xlink" x="0px" y="0px"
	 viewBox="0 0 512 512" style="enable-background:new 0 0 512 512;" xml:space="preserve">
<g>
	<circle style="fill:#7900FF;" cx="256" cy="256" r="256"/>
	<path style="fill:#B1B1B1;" d="M220.32,249.43c23.79,0,47.57,0,71.35,0l0.39,4.88l-34.87,52.86l-37.46-53.39L220.32,249.43
		L220.32,249.43L220.32,249.43z"/>
	<path style="fill:#EEB87C;" d="M220.78,236.17l-0.62,29.82l-50.59,27.66v101.41h85.16h85.15V293.65l-47.02-29.22l-2.58-29.81
		L220.78,236.17L220.78,236.17L220.78,236.17z"/>
	<path style="fill:#FCD097;" d="M197.4,149.21c0,0-2.9-6.37-10.69-3.22c-7.79,3.16,0.35,34.65,3.33,39.05
		c2.97,4.39,7.76,1.6,9.51,1.43c2.48,18.78,2.7,31.72,10.22,39.63c7.12,7.5,23.42,22.77,32,28.1c5.82,1.23,10.15,1.95,14.23,2.17
		c4.08-0.22,8.42-0.94,14.23-2.17c8.59-5.33,24.89-20.61,32-28.1c7.51-7.92,7.74-20.86,10.22-39.63c1.74,0.18,6.53,2.96,9.51-1.43
		c2.98-4.39,11.12-35.89,3.33-39.05c-7.79-3.16-10.69,3.22-10.69,3.22s7.7-24.73-5.99-49.08c-9.38-16.69-30.77-25.34-52.61-25.98
		c-21.85,0.64-43.23,9.29-52.61,25.98C189.7,124.48,197.4,149.21,197.4,149.21L197.4,149.21L197.4,149.21z"/>
	<path style="fill:#DABFFF;" d="M195.35,274.76l12.12-4.77l9.76-8.77l34.47,26.15h8.59l34.48-26.18l21.87,13.58l38.01,64.61
		l-30.1,163.32c-21.82,6.05-44.81,9.3-68.56,9.3c-19.37,0-38.23-2.17-56.37-6.24l-53.96-161.22L195.35,274.76L195.35,274.76z"/>
	<g>
		<path style="fill:#EDDEFF;" d="M305.59,266.59l-13.92-17.16l-31.38,37.93l26.94,29.93L305.59,266.59z"/>
		<path style="fill:#EDDEFF;" d="M206.38,266.29l13.94-16.86l31.38,37.93l-28.01,29.62L206.38,266.29z"/>
	</g>
	<path style="fill:#FFFFFF;" d="M206.39,266.29l-92.24,30c-3.75,1.22-6.11,4.41-6.87,8.28L80.15,442.02
		c18.27,17.28,39.08,31.88,61.81,43.21l13.49-44.01c0.16-0.51,0.64-0.82,1.16-0.76c0.52,0.06,0.92,0.48,0.95,1.01l1.95,51.69
		C189.28,505.3,221.86,512,256,512v-17.16L206.39,266.29L206.39,266.29z"/>
	<g>
		<path style="fill:#ECF1F5;" d="M206.39,266.29l-10.57,3.25l-27.99,47.76l35.34,1.11l-21.69,12.35L256,494.84L206.39,266.29
			L206.39,266.29z"/>
		<path style="fill:#ECF1F5;" d="M305.59,266.59l92.27,29.7c3.76,1.21,6.11,4.41,6.87,8.28l27.13,137.46
			c-18.27,17.28-39.08,31.88-61.82,43.21l-13.49-44.01c-0.15-0.51-0.64-0.82-1.16-0.76c-0.52,0.06-0.92,0.48-0.95,1.01l-1.94,51.69
			C322.72,505.3,290.14,512,256,512h0v-17.16L305.59,266.59L305.59,266.59z"/>
	</g>
	<path style="fill:#FFFFFF;" d="M305.59,266.59l5.86,1.78l32.69,49.22l-35.34,1.11l21.7,12.35L256,494.84L305.59,266.59
		L305.59,266.59L305.59,266.59L305.59,266.59z"/>
	<path style="fill:#D7D8D8;" d="M266.46,493.76c-3.11,0-5.63,2.52-5.63,5.62c0,3.11,2.52,5.62,5.63,5.62c3.11,0,5.63-2.52,5.63-5.62
		C272.09,496.28,269.56,493.76,266.46,493.76z"/>
	<path style="fill:#666666;" d="M307.88,156.58l5.43-0.19l1.75-6.19l5.11-5.1c3.38-25.43,4.37-65-20.87-63.86
		c0,0-2.28-28.86-47.8-23.2c-45.53,5.66-66.1,35.05-63.65,59.57c2.45,24.52,1.46,27.49,1.46,27.49l5.11,5.1l0.77,7.05l4.47-0.28
		c0,0,1.4-9.43,2.8-13.58c1.4-4.15,0.96-12.54,0.96-12.54s53.77,3.43,68.31-15.06c8.98-11.42,29.59-31.19,30.63-3.8
		c0.31,8.12-2.71,20.3,3.07,29.16C311.2,149.99,307.88,156.57,307.88,156.58L307.88,156.58L307.88,156.58z"/>
	<path style="fill:#B580FF;" d="M256,494.84l14.54-66.9l-9.88-131.88l5.38-2.3l-5.75-6.39h-8.59l-5.9,6.24l5.54,2.45L241.71,429
		L256,494.84L256,494.84L256,494.84z"/>
	<path style="fill:#FFFFFF;" d="M265.95,493.76c-2.83,0-5.13,2.29-5.13,5.11c0,2.83,2.3,5.12,5.13,5.12c2.83,0,5.13-2.29,5.13-5.12
		C271.09,496.05,268.79,493.76,265.95,493.76z"/>
	<path style="fill:#FCFCFC;" d="M346.4,409.07c-9.99-1.73-16.69-11.22-14.97-21.21c1.73-9.99,11.22-16.69,21.21-14.97
		c9.99,1.73,16.69,11.23,14.97,21.22C365.88,404.09,356.38,410.79,346.4,409.07L346.4,409.07L346.4,409.07z"/>
	<path style="fill:#B580FF;" d="M346.58,408.01c-9.41-1.62-15.72-10.57-14.09-19.98c1.62-9.41,10.57-15.72,19.98-14.1
		c9.41,1.63,15.72,10.57,14.09,19.98C364.93,403.33,355.99,409.64,346.58,408.01L346.58,408.01z"/>
	<path style="fill:#E9EAEA;" d="M347.89,400.41c-5.2-0.9-8.7-5.85-7.8-11.06c0.9-5.21,5.85-8.7,11.05-7.8
		c5.21,0.9,8.7,5.85,7.8,11.05C358.05,397.81,353.1,401.3,347.89,400.41L347.89,400.41z"/>
	<path style="fill:#FCFCFC;" d="M349.02,382.58l4.2,0.73l2.26-13.09l-4.2-0.73L349.02,382.58z"/>
	<path style="fill:#EDDEFF;" d="M208.24,412.7l7.88-1.56c3.35-0.67,6.12-2.64,7.89-5.28c1.76-2.64,2.53-5.96,1.87-9.31l-9.26-46.67
		c-3.5-17.61-17.27-26.59-33.02-28.58c-6.03-0.76-12.36-0.48-18.48,0.73c-6.13,1.21-12.08,3.37-17.36,6.38
		c-13.75,7.83-23.02,21.38-19.52,39.02l9.26,46.67c0.67,3.35,2.64,6.12,5.28,7.89l0.01,0c2.64,1.77,5.95,2.53,9.3,1.87l7.87-1.56
		l-0.64-3.25l-7.87,1.56c-2.45,0.49-4.89-0.08-6.82-1.37l0,0c-1.94-1.3-3.39-3.33-3.87-5.78l-9.26-46.67
		c-3.18-16.01,5.32-28.34,17.9-35.5c4.97-2.83,10.58-4.87,16.37-6.02c5.79-1.15,11.75-1.41,17.43-0.69
		c14.41,1.82,27.01,9.98,30.18,25.96l9.27,46.67c0.49,2.45-0.08,4.88-1.37,6.82c-1.3,1.94-3.33,3.38-5.78,3.87l-7.88,1.56
		L208.24,412.7L208.24,412.7L208.24,412.7L208.24,412.7z"/>
	<path style="fill:#4D4D4D;" d="M219.1,356.8l-1.41-7.13c-3.6-18.16-17.78-27.41-33.96-29.46c-6.15-0.78-12.59-0.5-18.83,0.74
		c-6.24,1.23-12.3,3.43-17.68,6.5c-14.15,8.06-23.67,22-20.06,40.19l1.42,7.13l5.41-1.08l-1.42-7.13
		c-3.07-15.46,5.17-27.39,17.36-34.34c4.87-2.77,10.37-4.77,16.05-5.89c5.68-1.13,11.52-1.38,17.09-0.68
		c13.96,1.76,26.17,9.65,29.23,25.08l1.42,7.13L219.1,356.8L219.1,356.8z"/>
	<g>
		<path style="fill:#B580FF;" d="M153.7,424.24l4.21-0.84c1.06,1.19,2.7,1.8,4.36,1.47c2.51-0.5,4.14-2.93,3.64-5.44
			c-0.5-2.51-2.93-4.13-5.44-3.64c-1.67,0.33-2.95,1.52-3.47,3.02l-4.21,0.83L153.7,424.24L153.7,424.24z"/>
		<path style="fill:#B580FF;" d="M211.59,412.75l-4.21,0.84c-0.52,1.5-1.8,2.69-3.47,3.02c-2.51,0.5-4.94-1.13-5.44-3.64
			c-0.5-2.51,1.13-4.94,3.64-5.44c1.67-0.33,3.31,0.28,4.36,1.47l4.21-0.84L211.59,412.75z"/>
	</g>
	<path style="fill:#666666;" d="M167.46,320.53l-1.61-8.1l-3.2,0.64l-3.19,0.63l1.62,8.18c1.22-0.36,2.45-0.66,3.69-0.9
		C165.67,320.8,166.56,320.66,167.46,320.53z"/>
	<g>
		<path style="fill:#117984;" d="M160.57,419.73c0.76-0.15,1.25-0.89,1.1-1.64c-0.15-0.76-0.88-1.25-1.65-1.1
			c-0.76,0.15-1.25,0.89-1.1,1.64S159.81,419.88,160.57,419.73L160.57,419.73z"/>
		<path style="fill:#117984;" d="M202.22,411.45c0.76-0.15,1.25-0.89,1.1-1.64c-0.15-0.76-0.88-1.25-1.65-1.1
			c-0.76,0.15-1.25,0.89-1.1,1.65C200.72,411.11,201.46,411.6,202.22,411.45z"/>
	</g>
	<path style="fill:#FCFCFC;" d="M347.38,400.32c-4.92-0.85-8.22-5.53-7.38-10.46c0.85-4.92,5.53-8.22,10.45-7.37
		c4.92,0.85,8.23,5.53,7.38,10.45C356.98,397.86,352.3,401.17,347.38,400.32L347.38,400.32z"/>
	<g>
		<path style="fill:#4D4D4D;" d="M206.43,268.72c-0.14,0-49.86,0.41-41.46,43.91l-4.62,0.88c-9.47-49.04,45.87-49.49,46.03-49.49
			L206.43,268.72z"/>
		<path style="fill:#4D4D4D;" d="M305.64,264.24c8.11,0.22,23.79,2.43,35.86,17.11c11.81,14.37,20.09,40.75,13.9,89.13l-4.66-0.59
			c5.99-46.82-1.75-72.03-12.87-85.55c-10.86-13.21-25.02-15.2-32.34-15.4L305.64,264.24L305.64,264.24z"/>
	</g>
</g>
</svg>
