<?xml version="1.0" encoding="utf-8"?>
<!-- Generator: Adobe Illustrator 26.5.0, SVG Export Plug-In . SVG Version: 6.00 Build 0)  -->
<svg version="1.1" id="Capa_1" xmlns="http://www.w3.org/2000/svg" xmlns:xlink="http://www.w3.org/1999/xlink" x="0px" y="0px"
	 viewBox="0 0 512 512" style="enable-background:new 0 0 512 512;" xml:space="preserve">
<g>
	<path style="fill:#73AF00;" d="M38.35,88.27C17.17,88.27,0,105.44,0,126.62v258.76c0,21.18,17.17,38.35,38.35,38.35h132.32V88.27
		H38.35z"/>
	<rect x="170.67" y="88.28" style="fill:#F5F5F5;" width="170.67" height="335.45"/>
	<path style="fill:#FF4B55;" d="M473.65,88.27H341.33v335.45h132.32c21.18,0,38.34-17.17,38.34-38.35V126.62
		C512,105.44,494.83,88.27,473.65,88.27z"/>
	<polygon style="fill:#FFD250;" points="271.23,263.89 256,271.51 256,279.12 263.61,279.12 	"/>
	<g>
		<path style="fill:#00C3A0;" d="M256,298.15c-2.1,0-3.81-1.7-3.81-3.81v-15.23c0-2.1,1.7-3.81,3.81-3.81s3.81,1.7,3.81,3.81v15.23
			C259.81,296.45,258.1,298.15,256,298.15z"/>
		<path style="fill:#00C3A0;" d="M256,282.93c-14.95,0-29.39-5.77-40.65-16.24c-1.54-1.43-1.63-3.84-0.2-5.38
			c1.44-1.54,3.85-1.62,5.38-0.2c9.85,9.16,22.45,14.21,35.47,14.21c13.02,0,25.62-5.04,35.47-14.21c1.54-1.42,3.94-1.35,5.38,0.2
			c1.43,1.54,1.34,3.95-0.2,5.38C285.39,277.16,270.95,282.93,256,282.93z"/>
	</g>
	<path style="fill:#00AADC;" d="M256,298.15c-9.76,0-19.21-2.85-27.34-8.25l4.21-6.34c13.74,9.13,32.5,9.13,46.24,0l4.21,6.34
		C275.21,295.3,265.76,298.15,256,298.15z"/>
	<polygon style="fill:#732D37;" points="249.97,246.76 241.57,259.77 240.14,264.05 262.03,258.98 	"/>
	<path style="fill:#AAD264;" d="M232.71,268.23c-10.06,0-22.14-8.47-25.34-27.34l7.51-1.27c2.66,15.69,12.32,21.01,18.11,20.99
		c1.78-0.05,3.63-0.66,3.78-1.92c0.17-1.5,0.21-1.86-3.77-3.2c-2.16-0.73-4.62-1.56-6.34-3.53c-6.96-7.95,2.46-16.37,6.99-20.41
		c0.8-0.71,1.13-1.32,1.04-1.55c-0.25-0.65-1.74-1.63-3.43-1.63c-4.84,0-8.51-2.73-9.57-7.13c-1.11-4.55,0.99-9.35,4.97-11.4
		l3.49,6.76c-0.93,0.48-1.3,1.86-1.07,2.84c0.09,0.39,0.32,1.31,2.18,1.31c4.66,0,9.1,2.75,10.54,6.54
		c0.62,1.61,1.55,5.81-3.09,9.94c-5,4.46-7.99,7.82-6.33,9.72c0.38,0.43,1.99,0.97,3.05,1.33c3.43,1.16,9.81,3.32,8.89,11.29
		c-0.57,5.01-5.05,8.49-11.13,8.66C233.03,268.23,232.86,268.23,232.71,268.23z"/>
	<path style="fill:#874150;" d="M263.61,225.83c0,0,7.61-15.23-7.61-22.84c0,0,53.29-7.61,45.68,60.9l0,0
		c-5-4-12.41-11.3-15.06-17.13l-23-13.32V225.83L263.61,225.83z"/>
	<path style="fill:#732D37;" d="M256,241.05l38.06,22.84c0,0,0,0-15.23,7.61L256,248.67V241.05z"/>
	<path style="fill:#783C46;" d="M240.77,218.22L240.77,218.22c4.2,0,7.61,3.41,7.61,7.61l-0.01,0.01
		c-4.54,4.54-5.67,11.48-2.79,17.22l1.72,3.44c0.72,1.43,1.66,2.74,2.79,3.88l21.13,21.13v-10.52c0-13.11-3.05-26.03-8.91-37.76l0,0
		c-3.87-7.74-11.78-12.62-20.43-12.62h-1.11L240.77,218.22L240.77,218.22z"/>
	<path style="fill:#FFD250;" d="M240.77,210.6l-7.61,7.61v7.61c0,0,9.06-4.59,12.11-6.05c2.13-1.02,1.74-3.44,0.52-4.6
		C244.84,214.27,240.77,210.6,240.77,210.6z"/>
	<path style="fill:#AAD264;" d="M256,313.38c-35.68,0-64.71-29.03-64.71-64.71h7.61c0,31.49,25.61,57.1,57.1,57.1
		s57.1-25.61,57.1-57.1h7.61C320.71,284.35,291.68,313.38,256,313.38z"/>
	<g>
		<circle style="fill:#FFE15A;" cx="199.32" cy="271.26" r="5.17"/>
		<circle style="fill:#FFE15A;" cx="210.74" cy="289.5" r="5.17"/>
		<circle style="fill:#FFE15A;" cx="229.29" cy="303.29" r="5.17"/>
		<circle style="fill:#FFE15A;" cx="313.23" cy="271.26" r="5.17"/>
		<circle style="fill:#FFE15A;" cx="301.8" cy="289.5" r="5.17"/>
		<circle style="fill:#FFE15A;" cx="283.25" cy="303.29" r="5.17"/>
	</g>
	<path style="fill:#FFB478;" d="M259.81,301.96h-7.61c-4.2,0-7.61-3.41-7.61-7.61l0,0c0-4.2,3.41-7.61,7.61-7.61h7.61
		c4.2,0,7.61,3.41,7.61,7.61l0,0C267.42,298.55,264.01,301.96,259.81,301.96z"/>
	<path style="fill:#9B4B5A;" d="M286.61,246.76c2.54,7.45,7.93,14.27,15.06,17.13l0,0c7.61-68.51-45.68-60.9-45.68-60.9
		C294.06,202.99,286.61,246.76,286.61,246.76z"/>
</g>
</svg>
