<?xml version="1.0" encoding="utf-8"?>
<!-- Generator: Adobe Illustrator 26.5.0, SVG Export Plug-In . SVG Version: 6.00 Build 0)  -->
<svg version="1.1" id="Capa_1" xmlns="http://www.w3.org/2000/svg" xmlns:xlink="http://www.w3.org/1999/xlink" x="0px" y="0px"
	 viewBox="0 0 512 512" style="enable-background:new 0 0 512 512;" xml:space="preserve">
<path style="fill:#FFFFFF;" d="M256,0C114.62,0,0,114.62,0,256s114.62,256,256,256s256-114.62,256-256
	C511.85,114.68,397.32,0.15,256,0z M256,469.33c-117.82,0-213.33-95.51-213.33-213.33S138.18,42.67,256,42.67
	S469.33,138.18,469.33,256C469.2,373.77,373.77,469.2,256,469.33z M362.67,256c0,11.78-9.55,21.33-21.33,21.33h-64v64
	c0,11.78-9.55,21.33-21.33,21.33c-11.78,0-21.33-9.55-21.33-21.33v-64h-64c-11.78,0-21.33-9.55-21.33-21.33
	c0-11.78,9.55-21.33,21.33-21.33h64v-64c0-11.78,9.55-21.33,21.33-21.33c11.78,0,21.33,9.55,21.33,21.33v64h64
	C353.12,234.67,362.67,244.22,362.67,256z"/>
</svg>
