<?xml version="1.0" encoding="utf-8"?>
<!-- Generator: Adobe Illustrator 26.5.0, SVG Export Plug-In . SVG Version: 6.00 Build 0)  -->
<svg version="1.1" id="Capa_1" xmlns="http://www.w3.org/2000/svg" xmlns:xlink="http://www.w3.org/1999/xlink" x="0px" y="0px"
	 viewBox="0 0 512 512" style="enable-background:new 0 0 512 512;" xml:space="preserve">
<g>
	<path style="fill:#6600FF;" d="M256.1,256c70.7,0,128-57.3,128-128S326.8,0,256.1,0s-128,57.3-128,128
		C128.2,198.7,185.4,255.9,256.1,256z M256.1,42.7c47.1,0,85.3,38.2,85.3,85.3s-38.2,85.3-85.3,85.3s-85.3-38.2-85.3-85.3
		S209,42.7,256.1,42.7z"/>
	<path style="fill:#6600FF;" d="M256.1,298.7c-106,0.1-191.9,86-192,192c0,11.8,9.6,21.3,21.3,21.3c11.8,0,21.3-9.6,21.3-21.3
		c0-82.5,66.9-149.3,149.3-149.3s149.3,66.9,149.3,149.3c0,11.8,9.6,21.3,21.3,21.3s21.3-9.6,21.3-21.3
		C448,384.7,362.1,298.8,256.1,298.7z"/>
</g>
</svg>
