<svg viewBox="0 0 512 512" xmlns="http://www.w3.org/2000/svg"><path d="m256 0c-141.38 0-256 114.62-256 256s114.62 256 256 256 256-114.62 256-256c-.15-141.32-114.68-255.85-256-256zm0 469.33c-117.82 0-213.33-95.51-213.33-213.33s95.51-213.33 213.33-213.33 213.33 95.51 213.33 213.33c-.13 117.77-95.57 213.2-213.33 213.33zm106.67-213.33c0 11.78-9.55 21.33-21.33 21.33h-64v64c0 11.78-9.55 21.33-21.33 21.33s-21.33-9.55-21.33-21.33v-64h-64c-11.78 0-21.33-9.55-21.33-21.33s9.55-21.33 21.33-21.33h64v-64c0-11.78 9.55-21.33 21.33-21.33s21.33 9.55 21.33 21.33v64h64c11.78 0 21.33 9.55 21.33 21.33z" fill="#fff"/></svg>