<svg viewBox="0 0 512 512" xmlns="http://www.w3.org/2000/svg"><path d="m405.22 42.74h-21.3v-21.39c0-11.7-9.59-21.3-21.29-21.3s-21.3 9.6-21.3 21.3v21.3h-170.66v-21.3c0-11.8-9.6-21.3-21.3-21.3s-21.4 9.6-21.4 21.3v21.3h-21.3c-58.78.09-106.67 47.88-106.67 106.67v255.95c0 58.79 47.89 106.68 106.68 106.68h298.64c58.79 0 106.68-47.89 106.68-106.68v-255.95c-.1-58.79-47.99-106.58-106.78-106.58zm-298.54 42.59h298.64c35.29 0 63.99 28.69 63.99 63.99v21.3h-426.62v-21.3c0-35.29 28.69-63.99 63.99-63.99zm298.54 383.93h-298.54c-35.29 0-63.99-28.69-63.99-63.99v-191.96h426.62v191.96c-.1 35.29-28.79 63.99-64.09 63.99zm-63.99-127.97c0 11.8-9.6 21.3-21.3 21.3h-42.69v42.69c0 11.8-9.6 21.3-21.3 21.3s-21.3-9.6-21.3-21.3v-42.69h-42.69c-11.8 0-21.3-9.6-21.3-21.3s9.5-21.3 21.3-21.3h42.69v-42.69c0-11.8 9.6-21.3 21.3-21.3s21.3 9.6 21.3 21.3v42.69h42.69c11.8 0 21.3 9.6 21.3 21.3z" fill="#60f"/></svg>