<?xml version="1.0" encoding="UTF-8"?><svg id="Capa_1" xmlns="http://www.w3.org/2000/svg" viewBox="0 0 512 512"><defs><style>.cls-1{fill:#60f;}</style></defs><path class="cls-1" d="M405.22,42.74h-21.3V21.35C383.92,9.65,374.33,.05,362.63,.05s-21.3,9.6-21.3,21.3v21.3H170.67V21.35C170.67,9.55,161.07,.05,149.37,.05s-21.4,9.6-21.4,21.3v21.3h-21.3C47.89,42.74,0,90.53,0,149.32v255.95c0,58.79,47.89,106.68,106.68,106.68H405.32c58.79,0,106.68-47.89,106.68-106.68V149.32c-.1-58.79-47.99-106.58-106.78-106.58ZM106.68,85.33H405.32c35.29,0,63.99,28.69,63.99,63.99v21.3H42.69v-21.3c0-35.29,28.69-63.99,63.99-63.99ZM405.22,469.26H106.68c-35.29,0-63.99-28.69-63.99-63.99V213.31H469.31v191.96c-.1,35.29-28.79,63.99-64.09,63.99Zm-63.99-127.97c0,11.8-9.6,21.3-21.3,21.3h-42.69v42.69c0,11.8-9.6,21.3-21.3,21.3s-21.3-9.6-21.3-21.3v-42.69h-42.69c-11.8,0-21.3-9.6-21.3-21.3s9.5-21.3,21.3-21.3h42.69v-42.69c0-11.8,9.6-21.3,21.3-21.3s21.3,9.6,21.3,21.3v42.69h42.69c11.8,0,21.3,9.6,21.3,21.3Z"/></svg>