<?xml version="1.0" encoding="UTF-8"?><svg id="Capa_1" xmlns="http://www.w3.org/2000/svg" viewBox="0 0 512 512"><defs><style>.cls-1{fill:#60f;}</style></defs><g id="_01_align_center"><path class="cls-1" d="M497.54,345.56l-55.44-199.81C412.81,39.97,303.3-22.04,197.52,7.26,126.67,26.88,72.44,84.01,56.53,155.79L13.65,348.76c-7.65,34.49,14.1,68.65,48.59,76.31,4.55,1.01,9.19,1.52,13.84,1.52h76.91c11.72,57.7,67.99,94.98,125.69,83.26,41.95-8.52,74.74-41.31,83.26-83.26h73.99c35.33-.02,63.95-28.67,63.94-64,0-5.75-.78-11.48-2.32-17.03h-.02Zm-240.07,123.67c-27.01-.11-51.04-17.18-60.04-42.64h120.09c-9,25.47-33.03,42.53-60.04,42.64Zm195.42-93.71c-4.03,5.35-10.36,8.47-17.06,8.42H76.09c-11.78,0-21.32-9.55-21.32-21.33,0-1.56,.17-3.11,.51-4.62l42.88-192.97C116.86,80.87,200.26,27.81,284.41,46.52c56.28,12.51,101.08,55.02,116.52,110.57l55.44,199.81c1.84,6.41,.55,13.3-3.48,18.61Z"/></g></svg>