<svg viewBox="0 0 512 512" xmlns="http://www.w3.org/2000/svg"><path d="m497.54 345.56-55.44-199.81c-29.29-105.78-138.8-167.79-244.58-138.49-70.85 19.62-125.08 76.75-140.99 148.53l-42.88 192.97c-7.65 34.49 14.1 68.65 48.59 76.31 4.55 1.01 9.19 1.52 13.84 1.52h76.91c11.72 57.7 67.99 94.98 125.69 83.26 41.95-8.52 74.74-41.31 83.26-83.26h73.99c35.33-.02 63.95-28.67 63.94-64 0-5.75-.78-11.48-2.32-17.03h-.02zm-240.07 123.67c-27.01-.11-51.04-17.18-60.04-42.64h120.09c-9 25.47-33.03 42.53-60.04 42.64zm195.42-93.71c-4.03 5.35-10.36 8.47-17.06 8.42h-359.74c-11.78 0-21.32-9.55-21.32-21.33 0-1.56.17-3.11.51-4.62l42.88-192.97c18.7-84.15 102.1-137.21 186.25-118.5 56.28 12.51 101.08 55.02 116.52 110.57l55.44 199.81c1.84 6.41.55 13.3-3.48 18.61z" fill="#60f"/></svg>