<?xml version="1.0" encoding="UTF-8"?><svg id="Capa_1" xmlns="http://www.w3.org/2000/svg" viewBox="0 0 512 512"><defs><style>.cls-1{fill:#fff;}</style></defs><path class="cls-1" d="M256,0C114.62,0,0,114.62,0,256s114.62,256,256,256,256-114.62,256-256C511.85,114.68,397.32,.15,256,0Zm0,469.33c-117.82,0-213.33-95.51-213.33-213.33S138.18,42.67,256,42.67s213.33,95.51,213.33,213.33c-.13,117.77-95.57,213.2-213.33,213.33Zm106.67-213.33c0,11.78-9.55,21.33-21.33,21.33h-64v64c0,11.78-9.55,21.33-21.33,21.33s-21.33-9.55-21.33-21.33v-64h-64c-11.78,0-21.33-9.55-21.33-21.33s9.55-21.33,21.33-21.33h64v-64c0-11.78,9.55-21.33,21.33-21.33s21.33,9.55,21.33,21.33v64h64c11.78,0,21.33,9.55,21.33,21.33Z"/></svg>