<svg viewBox="0 0 512 512" xmlns="http://www.w3.org/2000/svg"><g fill="#60f"><path d="m256.1 256c70.7 0 128-57.3 128-128s-57.3-128-128-128-128 57.3-128 128c.1 70.7 57.3 127.9 128 128zm0-213.3c47.1 0 85.3 38.2 85.3 85.3s-38.2 85.3-85.3 85.3-85.3-38.2-85.3-85.3 38.2-85.3 85.3-85.3z"/><path d="m256.1 298.7c-106 .1-191.9 86-192 192 0 11.8 9.6 21.3 21.3 21.3s21.3-9.6 21.3-21.3c0-82.5 66.9-149.3 149.3-149.3s149.3 66.9 149.3 149.3c0 11.8 9.6 21.3 21.3 21.3s21.3-9.6 21.3-21.3c.1-106-85.8-191.9-191.8-192z"/></g></svg>