<?xml version="1.0" encoding="UTF-8"?><svg id="Capa_1" xmlns="http://www.w3.org/2000/svg" viewBox="0 0 512 512"><defs><style>.cls-1{fill:#fff;}.cls-2{fill:#a166fd;}.cls-3{fill:#914dfd;}.cls-4{fill:#d1b0ff;}</style></defs><path class="cls-3" d="M75.05,409.3H234.72v30.91H75.05c-8.54,0-15.45-6.92-15.45-15.45s6.92-15.45,15.45-15.45Z"/><path class="cls-3" d="M63.77,325.87l25.38,25.38c4.67,4.67,12.25,4.67,16.92,0l33.84-33.84c4.68-4.67,4.68-12.25,0-16.92l-25.38-25.38c-4.67-4.67-12.25-4.67-16.92,0l-33.84,33.84c-4.68,4.67-4.68,12.25,0,16.92Z"/><path class="cls-2" d="M123.84,189.64c-28.26,28.26-28.04,74.22,.68,102.2,28.26,27.54,73.71,26.47,101.61-1.43,4.25-4.26,4.25-11.16,0-15.41l-17.68-68.45-68.44-17.68c-4.26-4.25-11.16-4.25-15.41,0l-.76,.76Z"/><g><path class="cls-3" d="M226.12,275.02h0s-15.22-58.93-15.22-58.93l-11.98-11.98-58.93-15.22c-4.25-4.25-11.15-4.25-15.41,0l-.76,.76c-4.64,4.64-8.49,9.76-11.59,15.19l70.81,70.81c-21.97,12.28-49.02,12.52-70.89,.18,3.27,5.75,7.37,11.16,12.36,16.02,23.3,22.7,58.29,25.95,85.49,10.75,5.35-3.12,10.29-6.35,16.12-12.18,4.58-4.57,3.9-11.83,0-15.4Z"/><path class="cls-3" d="M157.5,368.41h35.9c6.61,0,11.96-5.36,11.96-11.96v-35.89c0-6.61-5.36-11.96-11.96-11.96h-35.9c-6.61,0-11.96,5.36-11.96,11.96v35.89c0,6.61,5.36,11.96,11.96,11.96Z"/><path class="cls-3" d="M34.64,257.52v-35.9c0-6.61,5.36-11.96,11.96-11.96h47.86c6.61,0,11.96,5.36,11.96,11.96v35.9c0,6.61-5.36,11.96-11.96,11.96H46.6c-6.61,0-11.96-5.36-11.96-11.96Z"/></g><path class="cls-2" d="M394.59,57.76l-42.3-42.3-25.38,25.38c-19.89,19.89-16.56,16.56-25.38,25.38l33.84,33.84c4.67,4.67,12.25,4.67,16.92,0l42.3-42.3Z"/><path class="cls-3" d="M394.59,73.21c-3.95,0-7.91-1.51-10.93-4.53l-42.3-42.3c-6.04-6.04-6.04-15.82,0-21.86,6.03-6.03,15.82-6.03,21.85,0l42.3,42.3c6.04,6.04,6.04,15.82,0,21.86-3.02,3.02-6.98,4.53-10.93,4.53Z"/><path class="cls-1" d="M377.67,121.96c-10.75-10.74-74.23-74.23-84.61-84.61-4.67-4.67-12.25-4.67-16.92,0L140.76,172.72c-4.67,4.68-4.67,12.25,0,16.92l84.61,84.61c4.68,4.68,12.25,4.68,16.92,0l135.37-135.37c4.68-4.67,4.68-12.25,0-16.92Z"/><path class="cls-4" d="M377.67,121.96c-10.75-10.74-74.23-74.23-84.61-84.61-4.67-4.67-12.25-4.67-16.92,0l-13.39,13.39,76.54,76.53c2.61,2.61,1.08,7.12-2.64,7.55-50.32,5.88-90.25,46.27-95.42,96.79l-29.24,29.24,13.39,13.39c4.68,4.67,12.25,4.67,16.92,0,143.39-143.39,135.52-135.47,136.13-136.2,3.9-4.7,3.66-11.69-.75-16.09Z"/><path class="cls-3" d="M349.33,320.55c-42.89,0-77.78-34.89-77.78-77.78s34.89-77.78,77.78-77.78,77.78,34.89,77.78,77.78-34.89,77.78-77.78,77.78Z"/><path class="cls-1" d="M374.75,217.35c-14.02-14.02-36.75-14.02-50.77,0-14.02,14.02-14.02,36.75,0,50.77,10.17,10.17,15.77,23.69,15.77,38.07,0,8.68-2.08,16.89-5.75,24.16,9.1,6.61,18.11,13.34,26.09,21.31,9.5,9.12,18.76,18.37,27.94,27.63,14.79-20.61,23.51-45.85,23.51-73.1,0-33.56-13.07-65.11-36.8-88.84Z"/><path class="cls-3" d="M357.06,242.77c0,4.27-3.46,7.73-7.73,7.73s-7.73-3.46-7.73-7.73,3.46-7.73,7.73-7.73,7.73,3.46,7.73,7.73Z"/><path class="cls-1" d="M333.78,320.55c-66.09,0-119.66,53.57-119.66,119.66l119.66,35.89,119.66-35.89c0-66.09-53.57-119.66-119.66-119.66Z"/><path class="cls-4" d="M453.43,440.21c0-1.21-.02-2.43-.06-3.63,0-.3-.02-.6-.03-.9-.04-.95-.08-1.89-.14-2.84-.02-.34-.04-.67-.06-1-.08-1.1-.17-2.2-.27-3.29,0-.09-.01-.18-.02-.27-.12-1.27-.27-2.53-.44-3.78-.02-.13-.04-.26-.04-.39-.04-.72-.18-1.44-.31-2.15-.1-.54-.18-1.06-.27-1.59-9.45-56.64-58.69-99.82-118.01-99.82,0,15.9,10.32,30.07,25.55,34.65,26.62,8.02,48,28.22,57.64,54.1H218.16c-2.63,9.86-4.04,20.22-4.04,30.91l103.02,30.91h33.28l103.02-30.91Z"/><path class="cls-1" d="M453.43,440.21H166.26c-13.22,0-23.93,10.71-23.93,23.93v23.93c0,13.21,10.71,23.93,23.93,23.93H453.43c13.21,0,23.93-10.71,23.93-23.93v-23.93c0-13.21-10.71-23.93-23.93-23.93Z"/><path class="cls-4" d="M453.43,440.21h-6.98v40.89H142.33v6.98c0,13.21,10.71,23.93,23.93,23.93H453.43c13.21,0,23.93-10.71,23.93-23.93v-23.93c0-13.21-10.71-23.93-23.93-23.93Z"/></svg>