<?xml version="1.0" encoding="UTF-8"?><svg id="Capa_1" xmlns="http://www.w3.org/2000/svg" viewBox="0 0 512 512"><defs><style>.cls-1{fill:#60f;}</style></defs><path class="cls-1" d="M490.83,86.98c-12.15-14.58-30.15-23-49.13-22.98H96.78l-.9-7.49C92.09,24.3,64.79,.02,32.35,0h-4.74C15.83,0,6.28,9.55,6.28,21.33s9.55,21.33,21.33,21.33h4.74c10.82,0,19.92,8.1,21.18,18.84l29.35,249.6c6.31,53.73,51.84,94.23,105.94,94.23h222.78c11.78,0,21.33-9.55,21.33-21.33s-9.55-21.33-21.33-21.33H188.83c-27.06-.08-51.14-17.16-60.16-42.67h254.29c51.61,0,95.82-36.95,104.98-87.74l16.75-92.89c3.38-18.66-1.7-37.85-13.87-52.39Zm-28.01,44.82l-16.77,92.89c-5.5,30.51-32.08,52.7-63.08,52.65H121.89l-20.07-170.67H441.69c11.78-.07,21.39,9.42,21.46,21.21,0,1.32-.11,2.63-.34,3.93Z"/><circle class="cls-1" cx="155.61" cy="469.33" r="42.67" transform="translate(-115.25 55.66) rotate(-14.87)"/><circle class="cls-1" cx="368.95" cy="469.33" r="42.67" transform="translate(-210.69 326.46) rotate(-37.98)"/></svg>