<?xml version="1.0" encoding="UTF-8"?><svg id="Capa_1" xmlns="http://www.w3.org/2000/svg" viewBox="0 0 512 512"><defs><style>.cls-1{fill:#60f;}</style></defs><path class="cls-1" d="M506,475.92l-127.18-127.28c74.63-91.31,61.14-225.79-30.17-300.42C257.33-26.41,122.86-12.93,48.23,78.39-26.41,169.7-12.92,304.18,78.4,378.81c78.63,64.24,191.62,64.24,270.25,0l127.18,127.18c8.49,8.19,21.98,7.99,30.17-.5,7.99-8.19,7.99-21.28,0-29.57Zm-292.13-91.51c-94.21,0-170.54-76.33-170.54-170.54S119.76,43.42,213.87,43.42s170.54,76.33,170.54,170.44c-.1,94.11-76.43,170.44-170.54,170.54Z"/></svg>