<svg viewBox="0 0 512 512" xmlns="http://www.w3.org/2000/svg"><path d="m75.05 409.3h159.67v30.91h-159.67c-8.54 0-15.45-6.92-15.45-15.45s6.92-15.45 15.45-15.45z" fill="#914dfd"/><path d="m63.77 325.87 25.38 25.38c4.67 4.67 12.25 4.67 16.92 0l33.84-33.84c4.68-4.67 4.68-12.25 0-16.92l-25.38-25.38c-4.67-4.67-12.25-4.67-16.92 0l-33.84 33.84c-4.68 4.67-4.68 12.25 0 16.92z" fill="#914dfd"/><path d="m123.84 189.64c-28.26 28.26-28.04 74.22.68 102.2 28.26 27.54 73.71 26.47 101.61-1.43 4.25-4.26 4.25-11.16 0-15.41l-17.68-68.45-68.44-17.68c-4.26-4.25-11.16-4.25-15.41 0l-.76.76z" fill="#a166fd"/><g fill="#914dfd"><path d="m226.12 275.02s-15.22-58.93-15.22-58.93l-11.98-11.98-58.93-15.22c-4.25-4.25-11.15-4.25-15.41 0l-.76.76c-4.64 4.64-8.49 9.76-11.59 15.19l70.81 70.81c-21.97 12.28-49.02 12.52-70.89.18 3.27 5.75 7.37 11.16 12.36 16.02 23.3 22.7 58.29 25.95 85.49 10.75 5.35-3.12 10.29-6.35 16.12-12.18 4.58-4.57 3.9-11.83 0-15.4z"/><path d="m157.5 368.41h35.9c6.61 0 11.96-5.36 11.96-11.96v-35.89c0-6.61-5.36-11.96-11.96-11.96h-35.9c-6.61 0-11.96 5.36-11.96 11.96v35.89c0 6.61 5.36 11.96 11.96 11.96z"/><path d="m34.64 257.52v-35.9c0-6.61 5.36-11.96 11.96-11.96h47.86c6.61 0 11.96 5.36 11.96 11.96v35.9c0 6.61-5.36 11.96-11.96 11.96h-47.86c-6.61 0-11.96-5.36-11.96-11.96z"/></g><path d="m394.59 57.76-42.3-42.3-25.38 25.38c-19.89 19.89-16.56 16.56-25.38 25.38l33.84 33.84c4.67 4.67 12.25 4.67 16.92 0z" fill="#a166fd"/><path d="m394.59 73.21c-3.95 0-7.91-1.51-10.93-4.53l-42.3-42.3c-6.04-6.04-6.04-15.82 0-21.86 6.03-6.03 15.82-6.03 21.85 0l42.3 42.3c6.04 6.04 6.04 15.82 0 21.86-3.02 3.02-6.98 4.53-10.93 4.53z" fill="#914dfd"/><path d="m377.67 121.96c-10.75-10.74-74.23-74.23-84.61-84.61-4.67-4.67-12.25-4.67-16.92 0l-135.38 135.37c-4.67 4.68-4.67 12.25 0 16.92l84.61 84.61c4.68 4.68 12.25 4.68 16.92 0l135.37-135.37c4.68-4.67 4.68-12.25 0-16.92z" fill="#fff"/><path d="m377.67 121.96c-10.75-10.74-74.23-74.23-84.61-84.61-4.67-4.67-12.25-4.67-16.92 0l-13.39 13.39 76.54 76.53c2.61 2.61 1.08 7.12-2.64 7.55-50.32 5.88-90.25 46.27-95.42 96.79l-29.24 29.24 13.39 13.39c4.68 4.67 12.25 4.67 16.92 0 143.39-143.39 135.52-135.47 136.13-136.2 3.9-4.7 3.66-11.69-.75-16.09z" fill="#d1b0ff"/><path d="m349.33 320.55c-42.89 0-77.78-34.89-77.78-77.78s34.89-77.78 77.78-77.78 77.78 34.89 77.78 77.78-34.89 77.78-77.78 77.78z" fill="#914dfd"/><path d="m374.75 217.35c-14.02-14.02-36.75-14.02-50.77 0s-14.02 36.75 0 50.77c10.17 10.17 15.77 23.69 15.77 38.07 0 8.68-2.08 16.89-5.75 24.16 9.1 6.61 18.11 13.34 26.09 21.31 9.5 9.12 18.76 18.37 27.94 27.63 14.79-20.61 23.51-45.85 23.51-73.1 0-33.56-13.07-65.11-36.8-88.84z" fill="#fff"/><path d="m357.06 242.77c0 4.27-3.46 7.73-7.73 7.73s-7.73-3.46-7.73-7.73 3.46-7.73 7.73-7.73 7.73 3.46 7.73 7.73z" fill="#914dfd"/><path d="m333.78 320.55c-66.09 0-119.66 53.57-119.66 119.66l119.66 35.89 119.66-35.89c0-66.09-53.57-119.66-119.66-119.66z" fill="#fff"/><path d="m453.43 440.21c0-1.21-.02-2.43-.06-3.63 0-.3-.02-.6-.03-.9-.04-.95-.08-1.89-.14-2.84-.02-.34-.04-.67-.06-1-.08-1.1-.17-2.2-.27-3.29 0-.09-.01-.18-.02-.27-.12-1.27-.27-2.53-.44-3.78-.02-.13-.04-.26-.04-.39-.04-.72-.18-1.44-.31-2.15-.1-.54-.18-1.06-.27-1.59-9.45-56.64-58.69-99.82-118.01-99.82 0 15.9 10.32 30.07 25.55 34.65 26.62 8.02 48 28.22 57.64 54.1h-198.81c-2.63 9.86-4.04 20.22-4.04 30.91l103.02 30.91h33.28l103.02-30.91z" fill="#d1b0ff"/><path d="m453.43 440.21h-287.17c-13.22 0-23.93 10.71-23.93 23.93v23.93c0 13.21 10.71 23.93 23.93 23.93h287.17c13.21 0 23.93-10.71 23.93-23.93v-23.93c0-13.21-10.71-23.93-23.93-23.93z" fill="#fff"/><path d="m453.43 440.21h-6.98v40.89h-304.12v6.98c0 13.21 10.71 23.93 23.93 23.93h287.17c13.21 0 23.93-10.71 23.93-23.93v-23.93c0-13.21-10.71-23.93-23.93-23.93z" fill="#d1b0ff"/></svg>