<svg viewBox="0 0 512 512" xmlns="http://www.w3.org/2000/svg"><path d="m510.02 260.96-1.8-6.46-38-136.93c-10.8-38.98-36.13-71.42-71.32-91.35-35.2-19.93-76.05-24.96-115.03-14.16-54.11 14.99-95.27 58.35-107.42 113.16l-5.78 26.02c-18.67-15.67-42.03-24.2-66.7-24.2-27.78 0-53.89 10.82-73.52 30.46-19.63 19.63-30.45 45.74-30.45 73.51s10.81 53.88 30.45 73.52l170.47 170.47c19.64 19.64 45.75 30.46 73.52 30.46s53.89-10.82 73.52-30.46c19.64-19.63 30.46-45.74 30.46-73.52 0-8.02-.91-15.97-2.72-23.71 17.15-11.11 29.66-27.92 35.4-47.52h46.21c30.17-.01 54.7-24.57 54.69-54.74 0-4.92-.67-9.82-1.98-14.56zm-174.6 140.54c0 16.28-6.34 31.59-17.86 43.11s-26.84 17.87-43.12 17.87-31.6-6.35-43.12-17.87l-70.04-70.03 44.32-44.32h41.78c5.48 18.76 17.16 34.97 33.41 46.18 15.91 10.97 34.74 16.15 53.8 14.93.56 3.34.84 6.72.84 10.13zm-34.17-71.24h55.98c-6.88 8.02-17.03 12.93-27.99 12.99-10.96-.06-21.11-4.97-27.99-12.99zm-258.26-99.25c0-16.28 6.34-31.59 17.86-43.11s26.83-17.87 43.12-17.87 31.6 6.35 43.12 17.87l12.62 12.62-14.04 63.17c-4.09 18.44 1.83 37.69 14.95 50.74l-29.74 29.75-70.04-70.04c-11.52-11.52-17.86-26.84-17.86-43.13zm149.59 44.54c0-.47.05-.95.15-1.41l30.77-138.47c5.98-26.91 22.09-49.88 45.35-64.68 16.77-10.67 35.8-16.17 55.2-16.17 7.52 0 15.09.83 22.6 2.5 37.29 8.29 66.81 36.3 77.04 73.1l39.8 143.45c.55 1.92.16 4.02-1.05 5.62h-.01c-1.2 1.61-3.1 2.55-5.16 2.55h-258.19c-3.58 0-6.49-2.91-6.49-6.5z" fill="#60f"/></svg>