<?xml version="1.0" encoding="utf-8"?>
<!-- Generator: Adobe Illustrator 26.5.0, SVG Export Plug-In . SVG Version: 6.00 Build 0)  -->
<svg version="1.1" id="Capa_1" xmlns="http://www.w3.org/2000/svg" xmlns:xlink="http://www.w3.org/1999/xlink" x="0px" y="0px"
	 viewBox="0 0 512 512" style="enable-background:new 0 0 512 512;" xml:space="preserve">
<path style="fill:#666666;" d="M18.46,301.58l82.61,82.83c0.04,0.04,0.08,0.08,0.12,0.12c8.37,8.3,21.89,8.25,30.19-0.12l0,0
	c0.04-0.04,0.08-0.08,0.12-0.12c8.3-8.37,8.25-21.89-0.12-30.19l-77.28-77.06h436.54c11.79,0,21.35-9.56,21.35-21.35l0,0
	c0-11.79-9.56-21.35-21.35-21.35H55.39l75.99-76.64c8.28-8.33,8.28-21.77,0-30.1l0,0c-0.04-0.04-0.08-0.08-0.12-0.12
	c-8.37-8.3-21.89-8.25-30.19,0.12l-82.61,83.47C-6.05,236.22-6.25,276.62,18.46,301.58z"/>
</svg>
