<?xml version="1.0" encoding="utf-8"?>
<!-- Generator: Adobe Illustrator 26.5.0, SVG Export Plug-In . SVG Version: 6.00 Build 0)  -->
<svg version="1.1" id="Capa_1" xmlns="http://www.w3.org/2000/svg" xmlns:xlink="http://www.w3.org/1999/xlink" x="0px" y="0px"
	 viewBox="0 0 512 512" style="enable-background:new 0 0 512 512;" xml:space="preserve">
<g>
	<path style="fill:#FFFFFF;" d="M140.42,165c53.86-53.87,119.93-119.97,127.47-127.46c49.92-50.05,131.06-50.05,180.98,0
		c50.05,49.92,50.05,131.06,0,180.98c-7.45,7.51-75.76,75.8-127.46,127.47L140.42,165z"/>
	<path style="fill:#E0CCFF;" d="M339.59,327.81c0,0-113.37,113.34-121.07,121.05c-49.92,50.05-131.06,50.05-180.98,0
		c-50.05-49.92-50.05-131.06,0-180.98c0,0,63.51-63.49,121.09-121.07L339.59,327.81z"/>
	<path style="fill:#A366FF;" d="M358.4,204.8c-84.82,0-153.6,68.77-153.6,153.6S273.58,512,358.4,512S512,443.23,512,358.4
		S443.23,204.8,358.4,204.8z"/>
	<path style="fill:#944DFF;" d="M439.36,228.05c-23.53-14.64-51.21-23.24-80.96-23.24c-84.82,0-153.6,68.77-153.6,153.6
		c0,29.75,8.59,57.42,23.23,80.93c20.39-20.39,67.35-67.33,93.37-93.35l0,0C363.83,303.59,417.37,250.06,439.36,228.05z"/>
</g>
</svg>
