<?xml version="1.0" encoding="utf-8"?>
<!-- Generator: Adobe Illustrator 26.5.0, SVG Export Plug-In . SVG Version: 6.00 Build 0)  -->
<svg version="1.1" id="Capa_1" xmlns="http://www.w3.org/2000/svg" xmlns:xlink="http://www.w3.org/1999/xlink" x="0px" y="0px"
	 viewBox="0 0 512 512" style="enable-background:new 0 0 512 512;" xml:space="preserve">
<g>
	<path style="fill:#914DFD;" d="M75.05,409.3h159.68v30.91H75.05c-8.54,0-15.45-6.92-15.45-15.45S66.51,409.3,75.05,409.3z"/>
	<path style="fill:#914DFD;" d="M63.77,325.87l25.38,25.38c4.67,4.67,12.25,4.67,16.92,0l33.84-33.84c4.68-4.67,4.68-12.25,0-16.92
		l-25.38-25.38c-4.67-4.67-12.25-4.67-16.92,0l-33.84,33.84C59.09,313.62,59.09,321.2,63.77,325.87z"/>
	<path style="fill:#A166FD;" d="M123.84,189.64c-28.26,28.26-28.04,74.22,0.68,102.2c28.26,27.54,73.71,26.47,101.61-1.43
		c4.25-4.26,4.25-11.16,0-15.41l-17.68-68.45L140,188.89c-4.26-4.25-11.16-4.25-15.41,0L123.84,189.64z"/>
	<g>
		<path style="fill:#914DFD;" d="M226.12,275.02L226.12,275.02l-15.22-58.93l-11.98-11.98L140,188.89c-4.25-4.25-11.15-4.25-15.41,0
			l-0.76,0.76c-4.64,4.64-8.49,9.76-11.59,15.19l70.81,70.81c-21.97,12.28-49.02,12.52-70.89,0.18c3.27,5.75,7.37,11.16,12.36,16.02
			c23.3,22.7,58.29,25.95,85.49,10.75c5.35-3.12,10.29-6.35,16.12-12.18C230.7,285.84,230.03,278.59,226.12,275.02z"/>
		<path style="fill:#914DFD;" d="M157.5,368.41h35.9c6.61,0,11.96-5.36,11.96-11.96v-35.89c0-6.61-5.36-11.96-11.96-11.96h-35.9
			c-6.61,0-11.96,5.36-11.96,11.96v35.89C145.54,363.05,150.89,368.41,157.5,368.41z"/>
		<path style="fill:#914DFD;" d="M34.64,257.52v-35.9c0-6.61,5.36-11.96,11.96-11.96h47.86c6.61,0,11.96,5.36,11.96,11.96v35.9
			c0,6.61-5.36,11.96-11.96,11.96H46.6C39.99,269.48,34.64,264.12,34.64,257.52z"/>
	</g>
	<path style="fill:#A166FD;" d="M394.59,57.76l-42.3-42.3L326.9,40.84c-19.89,19.89-16.56,16.56-25.38,25.38l33.84,33.84
		c4.67,4.67,12.25,4.67,16.92,0L394.59,57.76z"/>
	<path style="fill:#914DFD;" d="M394.59,73.21c-3.95,0-7.91-1.51-10.93-4.53l-42.3-42.3c-6.04-6.04-6.04-15.82,0-21.86
		c6.03-6.03,15.82-6.03,21.85,0l42.3,42.3c6.04,6.04,6.04,15.82,0,21.86C402.5,71.7,398.54,73.21,394.59,73.21z"/>
	<path style="fill:#FFFFFF;" d="M377.67,121.96c-10.75-10.74-74.23-74.23-84.61-84.61c-4.67-4.67-12.25-4.67-16.92,0L140.76,172.72
		c-4.67,4.68-4.67,12.25,0,16.92l84.61,84.61c4.68,4.68,12.25,4.68,16.92,0l135.38-135.38
		C382.34,134.21,382.34,126.63,377.67,121.96z"/>
	<path style="fill:#D1B0FF;" d="M377.67,121.96c-10.75-10.74-74.23-74.23-84.61-84.61c-4.67-4.67-12.25-4.67-16.92,0l-13.39,13.39
		l76.54,76.53c2.61,2.61,1.08,7.12-2.64,7.55c-50.32,5.88-90.25,46.27-95.42,96.79l-29.24,29.24l13.39,13.39
		c4.68,4.67,12.25,4.67,16.92,0c143.39-143.39,135.52-135.47,136.13-136.2C382.32,133.35,382.07,126.36,377.67,121.96z"/>
	<path style="fill:#914DFD;" d="M349.33,320.55c-42.89,0-77.78-34.89-77.78-77.78S306.45,165,349.33,165s77.78,34.89,77.78,77.78
		S392.22,320.55,349.33,320.55z"/>
	<path style="fill:#FFFFFF;" d="M374.75,217.35c-14.02-14.02-36.75-14.02-50.77,0s-14.02,36.75,0,50.77
		c10.17,10.17,15.77,23.69,15.77,38.07c0,8.68-2.08,16.89-5.75,24.16c9.1,6.61,18.11,13.34,26.09,21.31
		c9.5,9.12,18.76,18.38,27.94,27.63c14.79-20.61,23.51-45.85,23.51-73.1C411.55,272.63,398.48,241.08,374.75,217.35z"/>
	<path style="fill:#914DFD;" d="M357.06,242.77c0,4.27-3.46,7.73-7.73,7.73c-4.27,0-7.73-3.46-7.73-7.73s3.46-7.73,7.73-7.73
		C353.6,235.05,357.06,238.51,357.06,242.77z"/>
	<path style="fill:#FFFFFF;" d="M333.78,320.55c-66.09,0-119.66,53.57-119.66,119.66l119.66,35.89l119.66-35.89
		C453.43,374.12,399.86,320.55,333.78,320.55z"/>
	<path style="fill:#D1B0FF;" d="M453.43,440.21c0-1.21-0.02-2.43-0.06-3.63c-0.01-0.3-0.02-0.6-0.03-0.9
		c-0.04-0.95-0.08-1.89-0.14-2.84c-0.02-0.34-0.04-0.67-0.06-1c-0.08-1.1-0.17-2.2-0.27-3.29c-0.01-0.09-0.01-0.18-0.02-0.27
		c-0.12-1.27-0.27-2.53-0.44-3.78c-0.02-0.13-0.04-0.26-0.04-0.39c-0.04-0.72-0.18-1.44-0.31-2.15c-0.1-0.54-0.18-1.06-0.27-1.59
		c-9.45-56.64-58.69-99.82-118.01-99.82c0,15.9,10.32,30.07,25.55,34.65c26.62,8.02,48,28.22,57.64,54.1H218.16
		c-2.63,9.86-4.04,20.22-4.04,30.91l103.02,30.91h33.28L453.43,440.21z"/>
	<path style="fill:#FFFFFF;" d="M453.43,440.21c-12.38,0-274.54,0-287.18,0c-13.22,0-23.93,10.71-23.93,23.93v23.93
		c0,13.21,10.71,23.93,23.93,23.93h287.18c13.21,0,23.93-10.71,23.93-23.93v-23.93C477.36,450.92,466.65,440.21,453.43,440.21z"/>
	<path style="fill:#D1B0FF;" d="M453.43,440.21c-0.95,0-3.35,0-6.98,0v40.89H142.33v6.98c0,13.21,10.71,23.93,23.93,23.93h287.18
		c13.21,0,23.93-10.71,23.93-23.93v-23.93C477.36,450.92,466.65,440.21,453.43,440.21z"/>
</g>
</svg>
