<?xml version="1.0" encoding="utf-8"?>
<!-- Generator: Adobe Illustrator 26.5.0, SVG Export Plug-In . SVG Version: 6.00 Build 0)  -->
<svg version="1.1" id="Capa_1" xmlns="http://www.w3.org/2000/svg" xmlns:xlink="http://www.w3.org/1999/xlink" x="0px" y="0px"
	 viewBox="0 0 512 512" style="enable-background:new 0 0 512 512;" xml:space="preserve">
<path style="fill:#6600FF;" d="M506,475.92L378.82,348.64c74.63-91.31,61.14-225.79-30.17-300.42S122.86-12.93,48.23,78.39
	S-12.92,304.18,78.4,378.81c78.63,64.24,191.62,64.24,270.25,0l127.18,127.18c8.49,8.19,21.98,7.99,30.17-0.5
	C513.99,497.3,513.99,484.21,506,475.92z M213.87,384.4c-94.21,0-170.54-76.33-170.54-170.54S119.76,43.42,213.87,43.42
	s170.54,76.33,170.54,170.44C384.31,307.98,307.98,384.3,213.87,384.4z"/>
</svg>
