<?xml version="1.0" encoding="utf-8"?>
<!-- Generator: Adobe Illustrator 26.5.0, SVG Export Plug-In . SVG Version: 6.00 Build 0)  -->
<svg version="1.1" id="Capa_1" xmlns="http://www.w3.org/2000/svg" xmlns:xlink="http://www.w3.org/1999/xlink" x="0px" y="0px"
	 viewBox="0 0 512 512" style="enable-background:new 0 0 512 512;" xml:space="preserve">
<path style="fill:#7900FF;" d="M453.33,64H58.67C26.3,64,0,90.3,0,122.67v266.66C0,421.7,26.3,448,58.67,448h394.66
	c32.36,0,58.67-26.3,58.67-58.67V122.67C512,90.3,485.7,64,453.33,64z M160,149.33c29.4,0,53.33,23.94,53.33,53.34
	c0,29.39-23.93,53.33-53.33,53.33s-53.33-23.94-53.33-53.33C106.67,173.27,130.6,149.33,160,149.33z M256,346.67
	c0,8.83-7.17,16-16,16H80c-8.83,0-16-7.17-16-16V336c0-32.36,26.3-58.67,58.67-58.67h74.66c32.36,0,58.67,26.3,58.67,58.67V346.67z
	 M432,362.67H314.67c-8.83,0-16-7.17-16-16s7.17-16,16-16H432c8.83,0,16,7.17,16,16S440.83,362.67,432,362.67z M432,277.33H314.67
	c-8.83,0-16-7.17-16-16s7.17-16,16-16H432c8.83,0,16,7.17,16,16S440.83,277.33,432,277.33z M432,192H314.67c-8.83,0-16-7.17-16-16
	s7.17-16,16-16H432c8.83,0,16,7.17,16,16S440.83,192,432,192z"/>
</svg>
