<?xml version="1.0" encoding="utf-8"?>
<!-- Generator: Adobe Illustrator 26.5.0, SVG Export Plug-In . SVG Version: 6.00 Build 0)  -->
<svg version="1.1" id="Capa_1" xmlns="http://www.w3.org/2000/svg" xmlns:xlink="http://www.w3.org/1999/xlink" x="0px" y="0px"
	 viewBox="0 0 512 512" style="enable-background:new 0 0 512 512;" xml:space="preserve">
<path style="fill:#6600FF;" d="M405.22,42.74h-21.3v-21.4c0-11.7-9.6-21.3-21.3-21.3s-21.3,9.6-21.3,21.3v21.3H170.67v-21.3
	c0-11.8-9.6-21.3-21.3-21.3c-11.7,0-21.4,9.6-21.4,21.3v21.3h-21.3C47.89,42.74,0,90.53,0,149.32v255.95
	c0,58.79,47.89,106.68,106.68,106.68h298.64c58.79,0,106.68-47.89,106.68-106.68V149.32C511.9,90.53,464.01,42.74,405.22,42.74z
	 M106.68,85.33h298.64c35.29,0,63.99,28.69,63.99,63.99v21.3H42.69v-21.3C42.69,114.03,71.39,85.33,106.68,85.33z M405.22,469.26
	H106.68c-35.29,0-63.99-28.69-63.99-63.99V213.31h426.62v191.96C469.21,440.56,440.51,469.26,405.22,469.26z M341.23,341.28
	c0,11.8-9.6,21.3-21.3,21.3h-42.69v42.69c0,11.8-9.6,21.3-21.3,21.3c-11.7,0-21.3-9.6-21.3-21.3v-42.69h-42.69
	c-11.8,0-21.3-9.6-21.3-21.3s9.5-21.3,21.3-21.3h42.69V277.3c0-11.8,9.6-21.3,21.3-21.3c11.7,0,21.3,9.6,21.3,21.3v42.69h42.69
	C331.74,319.99,341.23,329.59,341.23,341.28z"/>
</svg>
